<?xml version="1.0" standalone="no"?>
<!DOCTYPE svg PUBLIC "-//W3C//DTD SVG 20010904//EN"
 "http://www.w3.org/TR/2001/REC-SVG-20010904/DTD/svg10.dtd">
<svg version="1.0" xmlns="http://www.w3.org/2000/svg"
 width="16.000000pt" height="16.000000pt" viewBox="0 0 16.000000 16.000000"
 preserveAspectRatio="xMidYMid meet">
<metadata>
Created by potrace 1.11, written by Peter Selinger 2001-2013
</metadata>
<g transform="translate(0.000000,16.000000) scale(0.008649,-0.008649)"
fill="#000000" stroke="none">
<path d="M838 1785 c-2 -2 -24 -5 -49 -8 -121 -14 -278 -78 -379 -152 -52 -39
-143 -132 -186 -190 -63 -85 -113 -201 -137 -316 -13 -62 -24 -250 -14 -239 3
3 35 50 72 105 258 384 543 557 824 499 127 -26 212 -87 310 -222 65 -90 101
-116 228 -168 110 -44 150 -71 134 -87 -10 -10 -50 -14 -191 -18 -119 -4 -196
-30 -243 -83 -60 -67 -64 -144 -14 -274 43 -111 59 -177 59 -249 1 -58 -9
-152 -19 -186 -4 -17 -2 -17 29 -4 128 54 289 202 365 335 43 74 89 195 98
252 4 24 9 48 11 52 3 4 5 56 5 115 0 167 -47 324 -140 467 -32 50 -32 50
-106 126 -147 151 -346 237 -561 244 -51 2 -95 2 -96 1z"/>
<path d="M600 1307 c-115 -56 -263 -227 -380 -442 -18 -33 -45 -82 -60 -110
-45 -83 -45 -86 0 -177 107 -216 315 -382 550 -439 96 -24 291 -30 327 -10 42
22 43 202 2 323 -47 141 -131 247 -304 387 -85 68 -109 95 -136 145 -45 84
-26 168 60 271 46 56 48 61 23 74 -13 7 -34 1 -82 -22z"/>
<path d="M1038 1263 c-25 -6 -22 -42 4 -52 49 -18 99 19 62 46 -18 13 -34 15
-66 6z"/>
</g>
</svg>
